# xmcd
#
# Track frame offsets:
#	150
#	13164
#	33023
#	44392
#	62956
#	76420
#	90469
#	107293
#
# Disc length: 1544 seconds
#
# Revision: 0
# Processed by: cddbd v1.4b42PL1 Copyright (c) Steve Scherf et al.
# Submitted via: EasyCDDAExtractor 4.5.0.2
#
DISCID=55060608
DTITLE=Mendigos da Noite - um
DYEAR=2001
DGENRE=Blues
TTITLE0=Búfalos
TTITLE1=Eu não acredito
TTITLE2=Não lembro mais
TTITLE3=Eu não preciso de você
TTITLE4=Honk Tonk Woman (Rolling Stones)
TTITLE5=Meu coração não suporta mais (Garotos da Rua)
TTITLE6=Piece of my Heart ( Janis Joplin)
TTITLE7=People are strange (The Doors)
EXTD=
EXTT0=
EXTT1=
EXTT2=
EXTT3=
EXTT4=
EXTT5=
EXTT6=
EXTT7=
PLAYORDER=
